PathFileType	4	(X/Y/Z)	 3.0Hz3min.trc
DataRate	CameraRate	NumFrames	NumMarkers	Units	OrigDataRate	OrigDataStartFrame	OrigNumFrames
200	200	9	43	m	200	376	1000
Frame#	Time	C7			LSH			RSH			MAN			RASI			LASI			HIPR			HIPL			RPSI			LPSI			COX			RTHI1			RTHI2			RTHI3			RTHI4			RLKN			RMKN			RSHA1			RSHA2			RSHA3			RSHA4			RLMAL			RMMAL			RHEEL			RMET5			RMET1			RTOE			LTHI1			LTHI2			LTHI3			LTHI4			LLKN			LMKN			LSHA1			LSHA2			LSHA3			LSHA4			LLMAL			LMMAL			LHEEL			LMET5			LMET1			LTOE			
		X1	Y1	Z1	X2	Y2	Z2	X3	Y3	Z3	X4	Y4	Z4	X5	Y5	Z5	X6	Y6	Z6	X7	Y7	Z7	X8	Y8	Z8	X9	Y9	Z9	X10	Y10	Z10	X11	Y11	Z11	X12	Y12	Z12	X13	Y13	Z13	X14	Y14	Z14	X15	Y15	Z15	X16	Y16	Z16	X17	Y17	Z17	X18	Y18	Z18	X19	Y19	Z19	X20	Y20	Z20	X21	Y21	Z21	X22	Y22	Z22	X23	Y23	Z23	X24	Y24	Z24	X25	Y25	Z25	X26	Y26	Z26	X27	Y27	Z27	X28	Y28	Z28	X29	Y29	Z29	X30	Y30	Z30	X31	Y31	Z31	X32	Y32	Z32	X33	Y33	Z33	X34	Y34	Z34	X35	Y35	Z35	X36	Y36	Z36	X37	Y37	Z37	X38	Y38	Z38	X39	Y39	Z39	X40	Y40	Z40	X41	Y41	Z41	X42	Y42	Z42	X43	Y43	Z43	
376	1.8800	-0.137957	1.443264	-0.523506	-0.103195	1.438853	-0.716435	-0.065369	1.412035	-0.346353	-0.012958	1.370838	-0.535107	-0.019209	0.944301	-0.433472	-0.024763	0.949076	-0.656176	-0.072818	0.988544	-0.395797	-0.095475	0.987854	-0.685605	-0.173544	0.991913	-0.476605	-0.172707	0.994822	-0.589841	-0.176694	0.994792	-0.535616	-0.108788	0.759138	-0.353685	-0.104587	0.697965	-0.354158	-0.033299	0.711120	-0.360746	-0.044826	0.769684	-0.360848	-0.072197	0.450636	-0.373452	-0.071928	0.436197	-0.472356	-0.203645	0.294944	-0.366003	-0.220141	0.257582	-0.377799	-0.163013	0.237042	-0.369536	-0.150064	0.274826	-0.361965	-0.233485	0.105003	-0.385087	-0.220550	0.114045	-0.465977	-0.291677	0.093651	-0.423730	-0.144687	0.031901	-0.357698	-0.095042	0.043094	-0.438038	-0.063308	0.031821	-0.436388	-0.115327	0.732484	-0.730109	-0.108293	0.673238	-0.733366	-0.035989	0.684259	-0.734742	-0.052018	0.744172	-0.731859	-0.064487	0.452201	-0.727263	-0.068298	0.439303	-0.624460	-0.189915	0.274255	-0.743160	-0.206601	0.238050	-0.734192	-0.148275	0.218187	-0.728691	-0.137808	0.259923	-0.738581	-0.215057	0.110343	-0.727564	-0.221291	0.115984	-0.650041	-0.278482	0.099306	-0.701285	-0.116048	0.034972	-0.731791	-0.089132	0.043297	-0.650166	-0.063125	0.035645	-0.652568	
377	1.8850	-0.137939	1.445102	-0.523467	-0.103732	1.440706	-0.716342	-0.065337	1.413910	-0.346401	-0.012970	1.372818	-0.535206	-0.019015	0.946276	-0.433640	-0.024622	0.950963	-0.656008	-0.072191	0.991115	-0.395982	-0.095013	0.990246	-0.685378	-0.173307	0.994224	-0.476412	-0.172449	0.996961	-0.589835	-0.176550	0.996868	-0.535582	-0.109246	0.761071	-0.353658	-0.105200	0.699886	-0.354158	-0.033872	0.712871	-0.360639	-0.045244	0.771456	-0.360742	-0.073309	0.452521	-0.373466	-0.072721	0.438057	-0.472402	-0.204296	0.296383	-0.366405	-0.220530	0.258982	-0.378234	-0.163296	0.238655	-0.369700	-0.150607	0.276448	-0.362076	-0.233102	0.106127	-0.385420	-0.219871	0.115146	-0.466068	-0.291107	0.094947	-0.424164	-0.144594	0.032132	-0.357950	-0.094817	0.043048	-0.438055	-0.063190	0.031810	-0.436398	-0.115860	0.734336	-0.729725	-0.108848	0.675089	-0.732932	-0.036537	0.686086	-0.734608	-0.052564	0.745992	-0.731707	-0.065102	0.454120	-0.726971	-0.068198	0.441199	-0.624133	-0.190056	0.275869	-0.742531	-0.206590	0.239588	-0.733507	-0.148158	0.219911	-0.728367	-0.137891	0.261691	-0.738246	-0.214593	0.111790	-0.727148	-0.220250	0.117078	-0.649856	-0.277804	0.100842	-0.700591	-0.115979	0.035125	-0.731550	-0.088877	0.043243	-0.650103	-0.062960	0.035647	-0.652562	
378	1.8900	-0.137924	1.447337	-0.523424	-0.104248	1.443001	-0.716215	-0.065294	1.416234	-0.346445	-0.012985	1.375199	-0.535284	-0.018796	0.948675	-0.433811	-0.024416	0.953346	-0.655779	-0.071452	0.994158	-0.396245	-0.094306	0.993226	-0.685086	-0.173013	0.996938	-0.476212	-0.172125	0.999527	-0.589787	-0.176361	0.999354	-0.535565	-0.109649	0.763390	-0.353644	-0.105782	0.702185	-0.354168	-0.034418	0.714962	-0.360569	-0.045609	0.773588	-0.360672	-0.074425	0.454790	-0.373488	-0.073586	0.440295	-0.472457	-0.204825	0.298144	-0.366773	-0.220826	0.260664	-0.378575	-0.163506	0.240624	-0.369788	-0.151075	0.278434	-0.362132	-0.232584	0.107584	-0.385605	-0.219052	0.116525	-0.466000	-0.290373	0.096585	-0.424500	-0.144421	0.032407	-0.358183	-0.094576	0.042993	-0.438066	-0.063091	0.031798	-0.436411	-0.116337	0.736575	-0.729339	-0.109377	0.677316	-0.732471	-0.037053	0.688252	-0.734360	-0.053048	0.748162	-0.731482	-0.065838	0.456403	-0.726571	-0.068427	0.443466	-0.623688	-0.190169	0.277776	-0.741933	-0.206528	0.241396	-0.732873	-0.147982	0.221963	-0.728070	-0.137947	0.263786	-0.737911	-0.213983	0.113482	-0.726828	-0.219094	0.118367	-0.649811	-0.276976	0.102634	-0.700037	-0.115848	0.035315	-0.731317	-0.088642	0.043182	-0.650050	-0.062820	0.035642	-0.652537	
379	1.8950	-0.137914	1.449933	-0.523377	-0.104743	1.445700	-0.716054	-0.065244	1.418967	-0.346487	-0.013002	1.377952	-0.535334	-0.018562	0.951443	-0.433955	-0.024160	0.956172	-0.655509	-0.070659	0.997567	-0.396553	-0.093441	0.996689	-0.684749	-0.172664	0.999998	-0.476002	-0.171756	1.002493	-0.589760	-0.176115	1.002219	-0.535539	-0.110007	0.766055	-0.353638	-0.106342	0.704831	-0.354179	-0.034938	0.717372	-0.360535	-0.045928	0.776056	-0.360626	-0.075564	0.457409	-0.373508	-0.074510	0.442887	-0.472516	-0.205234	0.300196	-0.367077	-0.221044	0.262613	-0.378829	-0.163622	0.242890	-0.369780	-0.151471	0.280763	-0.362122	-0.231920	0.109317	-0.385660	-0.218086	0.118169	-0.465802	-0.289472	0.098542	-0.424730	-0.144168	0.032730	-0.358384	-0.094337	0.042927	-0.438051	-0.063005	0.031789	-0.436443	-0.116760	0.739172	-0.728951	-0.109888	0.679891	-0.731997	-0.037544	0.690723	-0.734013	-0.053472	0.750659	-0.731197	-0.066691	0.459026	-0.726082	-0.068988	0.446071	-0.623139	-0.190271	0.279944	-0.741369	-0.206420	0.243445	-0.732301	-0.147765	0.224317	-0.727812	-0.137985	0.266185	-0.737591	-0.213236	0.115395	-0.726605	-0.217846	0.119837	-0.649888	-0.276009	0.104662	-0.699626	-0.115651	0.035549	-0.731081	-0.088429	0.043120	-0.650002	-0.062707	0.035638	-0.652495	
380	1.9000	-0.137920	1.452856	-0.523328	-0.105208	1.448763	-0.715864	-0.065201	1.422065	-0.346529	-0.013026	1.381043	-0.535354	-0.018320	0.954529	-0.434057	-0.023863	0.959385	-0.655210	-0.069864	1.001241	-0.396874	-0.092486	1.000524	-0.684381	-0.172270	1.003352	-0.475794	-0.171347	1.005794	-0.589734	-0.175813	1.005410	-0.535499	-0.110331	0.769037	-0.353630	-0.106885	0.707786	-0.354188	-0.035438	0.720071	-0.360520	-0.046210	0.778811	-0.360596	-0.076733	0.460351	-0.373522	-0.075489	0.445784	-0.472564	-0.205577	0.302521	-0.367296	-0.221201	0.264791	-0.379017	-0.163649	0.245420	-0.369670	-0.151790	0.283404	-0.362004	-0.231124	0.111283	-0.385604	-0.216972	0.120057	-0.465485	-0.288412	0.100782	-0.424847	-0.143844	0.033095	-0.358542	-0.094098	0.042845	-0.438011	-0.062940	0.031781	-0.436483	-0.117135	0.742093	-0.728570	-0.110386	0.682787	-0.731519	-0.038022	0.693470	-0.733590	-0.053832	0.753447	-0.730862	-0.067660	0.461949	-0.725526	-0.069856	0.448998	-0.622502	-0.190368	0.282333	-0.740845	-0.206275	0.245708	-0.731789	-0.147494	0.226935	-0.727599	-0.138005	0.268863	-0.737291	-0.212361	0.117498	-0.726472	-0.216650	0.121628	-0.649889	-0.274905	0.106881	-0.699339	-0.115398	0.035814	-0.730846	-0.088233	0.043051	-0.649953	-0.062624	0.035619	-0.652445	
381	1.9050	-0.137951	1.456056	-0.523274	-0.105630	1.452147	-0.715644	-0.065172	1.425485	-0.346573	-0.013063	1.384434	-0.535343	-0.018069	0.957891	-0.434110	-0.023533	0.962924	-0.654893	-0.069102	1.005104	-0.397183	-0.091497	1.004638	-0.683998	-0.171839	1.006951	-0.475604	-0.170904	1.009383	-0.589711	-0.175458	1.008886	-0.535447	-0.110624	0.772286	-0.353616	-0.107416	0.711017	-0.354181	-0.035928	0.723023	-0.360517	-0.046463	0.781822	-0.360577	-0.077940	0.463576	-0.373514	-0.076511	0.448942	-0.472586	-0.205873	0.305110	-0.367462	-0.221296	0.267176	-0.379121	-0.163620	0.248209	-0.369476	-0.152058	0.286317	-0.361847	-0.230192	0.113470	-0.385408	-0.215702	0.122172	-0.465071	-0.287197	0.103263	-0.424861	-0.143472	0.033501	-0.358656	-0.093862	0.042773	-0.437947	-0.062893	0.031779	-0.436530	-0.117456	0.745307	-0.728208	-0.110866	0.685973	-0.731050	-0.038478	0.696464	-0.733098	-0.054124	0.756487	-0.730485	-0.068741	0.465126	-0.724926	-0.070968	0.452196	-0.621806	-0.190467	0.284911	-0.740359	-0.206098	0.248149	-0.731333	-0.147167	0.229787	-0.727438	-0.138011	0.271776	-0.737015	-0.211358	0.119769	-0.726418	-0.215454	0.123689	-0.649834	-0.273680	0.109264	-0.699146	-0.115099	0.036100	-0.730622	-0.088021	0.043015	-0.649848	-0.062555	0.035607	-0.652348	
382	1.9100	-0.138020	1.459487	-0.523214	-0.106030	1.455796	-0.715397	-0.065171	1.429176	-0.346622	-0.013116	1.388091	-0.535297	-0.017808	0.961485	-0.434116	-0.023177	0.966723	-0.654565	-0.068394	1.009103	-0.397461	-0.090497	1.008939	-0.683602	-0.171379	1.010755	-0.475437	-0.170432	1.013210	-0.589691	-0.175057	1.012604	-0.535386	-0.110888	0.775770	-0.353584	-0.107941	0.714495	-0.354146	-0.036406	0.726185	-0.360516	-0.046691	0.785048	-0.360558	-0.079188	0.467046	-0.373474	-0.077560	0.452319	-0.472586	-0.206111	0.307894	-0.367573	-0.221330	0.269728	-0.379168	-0.163536	0.251209	-0.369193	-0.152279	0.289452	-0.361631	-0.229126	0.115859	-0.385062	-0.214268	0.124486	-0.464580	-0.285828	0.105944	-0.424789	-0.143048	0.033963	-0.358751	-0.093627	0.042714	-0.437867	-0.062866	0.031781	-0.436581	-0.117719	0.748778	-0.727870	-0.111327	0.689414	-0.730607	-0.038908	0.699660	-0.732555	-0.054344	0.759753	-0.730078	-0.069927	0.468517	-0.724304	-0.072266	0.455627	-0.621070	-0.190563	0.287647	-0.739897	-0.205890	0.250727	-0.730919	-0.146798	0.232816	-0.727315	-0.138005	0.274878	-0.736768	-0.210233	0.122170	-0.726426	-0.214204	0.125957	-0.649766	-0.272339	0.111775	-0.699019	-0.114755	0.036415	-0.730411	-0.087846	0.043020	-0.649809	-0.062513	0.035596	-0.652254	
383	1.9150	-0.138132	1.463096	-0.523143	-0.106409	1.459666	-0.715121	-0.065208	1.433092	-0.346678	-0.013208	1.391996	-0.535232	-0.017540	0.965264	-0.434079	-0.022797	0.970723	-0.654232	-0.067746	1.013198	-0.397692	-0.089510	1.013384	-0.683195	-0.170898	1.014727	-0.475300	-0.169935	1.017226	-0.589684	-0.174620	1.016524	-0.535319	-0.111121	0.779455	-0.353530	-0.108457	0.718179	-0.354076	-0.036868	0.729532	-0.360507	-0.046890	0.788448	-0.360539	-0.080481	0.470714	-0.373394	-0.078635	0.455876	-0.472561	-0.206357	0.310846	-0.367609	-0.221301	0.272433	-0.379224	-0.163396	0.254380	-0.368838	-0.152452	0.292763	-0.361353	-0.227904	0.118387	-0.384600	-0.212668	0.126959	-0.464034	-0.284311	0.108787	-0.424634	-0.142582	0.034481	-0.358832	-0.093394	0.042664	-0.437764	-0.062853	0.031796	-0.436651	-0.117921	0.752468	-0.727564	-0.111761	0.693074	-0.730201	-0.039306	0.703030	-0.731970	-0.054493	0.763202	-0.729642	-0.071213	0.472075	-0.723680	-0.073716	0.459228	-0.620325	-0.190663	0.290493	-0.739446	-0.205658	0.253408	-0.730540	-0.146400	0.235971	-0.727236	-0.137997	0.278135	-0.736550	-0.208996	0.124671	-0.726482	-0.212859	0.128372	-0.649697	-0.270886	0.114387	-0.698922	-0.114359	0.036785	-0.730196	-0.087649	0.043053	-0.649779	-0.062491	0.035593	-0.652166	
384	1.9200	-0.138289	1.466834	-0.523065	-0.106753	1.463707	-0.714823	-0.065299	1.437184	-0.346740	-0.013344	1.396111	-0.535151	-0.017265	0.969187	-0.434006	-0.022393	0.974869	-0.653897	-0.067163	1.017366	-0.397869	-0.088522	1.017926	-0.682771	-0.170400	1.018837	-0.475196	-0.169408	1.021383	-0.589678	-0.174156	1.020597	-0.535258	-0.111320	0.783310	-0.353450	-0.108962	0.722034	-0.353966	-0.037318	0.733022	-0.360479	-0.047056	0.791983	-0.360515	-0.081820	0.474535	-0.373267	-0.079725	0.459555	-0.472510	-0.206599	0.313909	-0.367614	-0.221194	0.275244	-0.379274	-0.163208	0.257706	-0.368428	-0.152584	0.296201	-0.361012	-0.226577	0.121064	-0.383998	-0.210907	0.129542	-0.463432	-0.282654	0.111751	-0.424419	-0.142068	0.035036	-0.358890	-0.093158	0.042636	-0.437649	-0.062854	0.031820	-0.436718	-0.118059	0.756337	-0.727303	-0.112163	0.696918	-0.729844	-0.039668	0.706538	-0.731357	-0.054571	0.766793	-0.729186	-0.072590	0.475756	-0.723074	-0.075266	0.462960	-0.619592	-0.190769	0.293408	-0.739000	-0.205409	0.256155	-0.730177	-0.145961	0.239217	-0.727205	-0.137986	0.281505	-0.736361	-0.207655	0.127235	-0.726576	-0.211385	0.130895	-0.649642	-0.269332	0.117064	-0.698817	-0.113936	0.037165	-0.729998	-0.087448	0.043107	-0.649776	-0.062478	0.035596	-0.652089	
